<?xml version="1.0" encoding="UTF-8" standalone="no"?>
<!-- Created with Inkscape (http://www.inkscape.org/) -->

<svg
   xml:space="preserve"
   sodipodi:docname="logo.svg"
   inkscape:version="1.3.2 (1:1.3.2+202311252150+091e20ef0f)"
   id="svg5"
   version="1.1"
   viewBox="0 0 217 54"
   height="54mm"
   width="217mm"
   xmlns:inkscape="http://www.inkscape.org/namespaces/inkscape"
   xmlns:sodipodi="http://sodipodi.sourceforge.net/DTD/sodipodi-0.dtd"
   xmlns="http://www.w3.org/2000/svg"
   xmlns:svg="http://www.w3.org/2000/svg"><sodipodi:namedview
     id="namedview7"
     pagecolor="#ffffff"
     bordercolor="#666666"
     borderopacity="1.0"
     inkscape:showpageshadow="false"
     inkscape:pageopacity="0.0"
     inkscape:pagecheckerboard="0"
     inkscape:deskcolor="#ffffff"
     inkscape:document-units="mm"
     showgrid="false"
     inkscape:zoom="0.45254834"
     inkscape:cx="288.36698"
     inkscape:cy="268.47961"
     inkscape:window-width="1920"
     inkscape:window-height="1171"
     inkscape:window-x="1920"
     inkscape:window-y="0"
     inkscape:window-maximized="1"
     inkscape:current-layer="layer1"
     showguides="false"
     showborder="true"><inkscape:grid
       type="axonomgrid"
       id="grid1169"
       gridanglex="15"
       gridanglez="15"
       originx="0"
       originy="0"
       spacingy="1"
       units="mm"
       visible="false" /></sodipodi:namedview><defs
     id="defs2"><inkscape:path-effect
       effect="perspective-envelope"
       up_left_point="3.8340919,2006.7134"
       up_right_point="140.8208,1971.7236"
       down_left_point="3.6305202,2029.3735"
       down_right_point="140.81565,1993.9633"
       id="path-effect6836"
       is_visible="true"
       lpeversion="1"
       deform_type="perspective"
       horizontal_mirror="false"
       vertical_mirror="false"
       overflow_perspective="false" /><inkscape:path-effect
       effect="rough_hatches"
       id="path-effect50882"
       is_visible="true"
       lpeversion="1.2"
       direction="124.58494,1778.9898 , 18.53336,0"
       dist_rdm="75;2139095038"
       growth="1"
       do_bend="true"
       bender="124.58494,1783.9898 , 5,0"
       bottom_edge_variation="6.8907096;2139095038"
       top_edge_variation="6.8907096;1566196353"
       bottom_tgt_variation="0;2139095038"
       top_tgt_variation="0;2139095038"
       scale_bf="1"
       scale_bb="1"
       scale_tf="1"
       scale_tb="1"
       top_smth_variation="0;1"
       bottom_smth_variation="0;1"
       fat_output="true"
       stroke_width_top="1"
       stroke_width_bottom="1"
       front_thickness="1"
       back_thickness="0.25" /><inkscape:path-effect
       effect="rough_hatches"
       id="path-effect50880"
       is_visible="true"
       lpeversion="1.2"
       direction="196.63552,1868.0171 , 47.790506,0"
       dist_rdm="75;1"
       growth="0"
       do_bend="true"
       bender="196.63552,1873.0171 , 5,0"
       bottom_edge_variation="29.3469;1"
       top_edge_variation="29.3469;1"
       bottom_tgt_variation="0;1"
       top_tgt_variation="0;1"
       scale_bf="1"
       scale_bb="1"
       scale_tf="1"
       scale_tb="1"
       top_smth_variation="0;1"
       bottom_smth_variation="0;1"
       fat_output="true"
       stroke_width_top="1"
       stroke_width_bottom="1"
       front_thickness="1"
       back_thickness="0.25" /><inkscape:path-effect
       effect="powerstroke"
       id="path-effect50872"
       is_visible="true"
       lpeversion="1"
       offset_points="0.2,2.6708186 | 23.5,2.6708186 | 46.8,2.6708186"
       not_jump="false"
       sort_points="true"
       interpolator_type="CentripetalCatmullRom"
       interpolator_beta="0.2"
       start_linecap_type="zerowidth"
       linejoin_type="round"
       miter_limit="4"
       scale_width="1"
       end_linecap_type="zerowidth"
       message="&lt;b&gt;Ctrl + clic&lt;/b&gt; puis déplacement sur un nœud existant" /><inkscape:path-effect
       effect="gears"
       id="path-effect50278"
       is_visible="true"
       lpeversion="1"
       teeth="31"
       phi="5"
       min_radius="5" /><inkscape:path-effect
       effect="gears"
       id="path-effect50274"
       is_visible="true"
       lpeversion="1"
       teeth="54"
       phi="5"
       min_radius="5" /><inkscape:path-effect
       effect="gears"
       id="path-effect49685"
       is_visible="true"
       lpeversion="1"
       teeth="40"
       phi="7.6"
       min_radius="5.7" /><inkscape:path-effect
       effect="roughen"
       id="path-effect48375"
       is_visible="true"
       lpeversion="1.2"
       method="size"
       max_segment_size="0.497732"
       segments="2"
       displace_x="10;1"
       displace_y="10;1"
       global_randomize="1;1"
       handles="along"
       shift_nodes="true"
       fixed_displacement="false"
       spray_tool_friendly="false" /><inkscape:path-effect
       effect="rough_hatches"
       id="path-effect48279"
       is_visible="true"
       lpeversion="1.2"
       direction="202.75086,1396.9636 , 11.346896,0"
       dist_rdm="75;1"
       growth="0"
       do_bend="true"
       bender="202.75086,1401.9636 , 5,0"
       bottom_edge_variation="4.5387585;1"
       top_edge_variation="4.5387585;1"
       bottom_tgt_variation="0;1"
       top_tgt_variation="0;1"
       scale_bf="1"
       scale_bb="1"
       scale_tf="1"
       scale_tb="1"
       top_smth_variation="0;1"
       bottom_smth_variation="0;1"
       fat_output="true"
       stroke_width_top="1"
       stroke_width_bottom="1"
       front_thickness="1"
       back_thickness="0.25" /><inkscape:path-effect
       effect="vonkoch"
       id="path-effect47779"
       is_visible="true"
       lpeversion="1"
       ref_path="m 219.84292,1419.313 h 77.04387"
       generator="m 219.84292,1447.5093 h 25.68129 m 25.68129,0 h 25.68129"
       similar_only="false"
       nbgenerations="1"
       drawall="true"
       maxComplexity="1000" /><inkscape:path-effect
       effect="ruler"
       id="path-effect47777"
       is_visible="true"
       lpeversion="1"
       unit="px"
       mark_distance="20"
       mark_length="14"
       minor_mark_length="7"
       major_mark_steps="5"
       shift="0"
       offset="0"
       mark_dir="left"
       border_marks="both" /><inkscape:path-effect
       effect="ruler"
       id="path-effect47721"
       is_visible="true"
       lpeversion="1"
       unit="px"
       mark_distance="20"
       mark_length="14"
       minor_mark_length="7"
       major_mark_steps="5"
       shift="0"
       offset="0"
       mark_dir="left"
       border_marks="both" /><inkscape:path-effect
       effect="sketch"
       id="path-effect47717"
       is_visible="true"
       lpeversion="1"
       nbiter_approxstrokes="5"
       strokelength="100"
       strokelength_rdm="0.3;1"
       strokeoverlap="0.3"
       strokeoverlap_rdm="0.3;1"
       ends_tolerance="0.1;1"
       parallel_offset="5;1"
       tremble_size="5;1"
       tremble_frequency="1"
       nbtangents="5"
       tgt_places_rdmness="1;1"
       tgtscale="10"
       tgtlength="100"
       tgtlength_rdm="0.3;1" /><inkscape:path-effect
       effect="fillet_chamfer"
       id="path-effect3693"
       is_visible="true"
       lpeversion="1"
       nodesatellites_param="F,0,0,1,0,0,0,1 @ F,0,0,1,0,3.8391477,0,1 @ F,0,0,1,0,0,0,1 @ F,0,0,1,0,6.1103138,0,1 @ F,0,0,1,0,0,0,1"
       unit="px"
       method="auto"
       mode="F"
       radius="0"
       chamfer_steps="1"
       flexible="false"
       use_knot_distance="true"
       apply_no_radius="true"
       apply_with_radius="true"
       only_selected="false"
       hide_knots="false" /><inkscape:path-effect
       effect="fillet_chamfer"
       id="path-effect46244"
       is_visible="true"
       lpeversion="1"
       nodesatellites_param="F,0,0,1,0,0,0,1 @ F,0,0,1,0,3.315906,0,1 @ F,0,0,1,0,4.2652207,0,1 @ F,0,0,1,0,4.2130791,0,1 @ F,0,0,1,0,0,0,1"
       unit="px"
       method="auto"
       mode="F"
       radius="0"
       chamfer_steps="1"
       flexible="false"
       use_knot_distance="true"
       apply_no_radius="true"
       apply_with_radius="true"
       only_selected="false"
       hide_knots="false" /><inkscape:path-effect
       effect="fillet_chamfer"
       id="path-effect46240"
       is_visible="true"
       lpeversion="1"
       nodesatellites_param="F,0,0,1,0,0,0,1 @ F,0,0,1,0,5.7804905,0,1 @ F,0,0,1,0,0,0,1"
       unit="px"
       method="auto"
       mode="F"
       radius="0"
       chamfer_steps="1"
       flexible="false"
       use_knot_distance="true"
       apply_no_radius="true"
       apply_with_radius="true"
       only_selected="false"
       hide_knots="false" /><inkscape:path-effect
       effect="fillet_chamfer"
       id="path-effect46019"
       is_visible="true"
       lpeversion="1"
       nodesatellites_param="F,0,0,1,0,0,0,1 @ F,0,0,1,0,5,0,1 @ F,0,0,1,0,5.00002,0,1 @ F,0,0,1,0,0,0,1"
       unit="px"
       method="auto"
       mode="F"
       radius="0"
       chamfer_steps="1"
       flexible="false"
       use_knot_distance="true"
       apply_no_radius="true"
       apply_with_radius="true"
       only_selected="false"
       hide_knots="false" /><inkscape:path-effect
       effect="rough_hatches"
       id="path-effect48279-6"
       is_visible="true"
       lpeversion="1.2"
       direction="202.75086,1396.9636 , 11.346896,0"
       dist_rdm="75;1"
       growth="0"
       do_bend="true"
       bender="202.75086,1401.9636 , 5,0"
       bottom_edge_variation="4.5387585;1"
       top_edge_variation="4.5387585;1"
       bottom_tgt_variation="0;1"
       top_tgt_variation="0;1"
       scale_bf="1"
       scale_bb="1"
       scale_tf="1"
       scale_tb="1"
       top_smth_variation="0;1"
       bottom_smth_variation="0;1"
       fat_output="true"
       stroke_width_top="1"
       stroke_width_bottom="1"
       front_thickness="1"
       back_thickness="0.25" /><inkscape:path-effect
       effect="rough_hatches"
       id="path-effect48279-4"
       is_visible="true"
       lpeversion="1.2"
       direction="202.75086,1396.9636 , 11.346896,0"
       dist_rdm="75;1"
       growth="0"
       do_bend="true"
       bender="202.75086,1401.9636 , 5,0"
       bottom_edge_variation="4.5387585;1"
       top_edge_variation="4.5387585;1"
       bottom_tgt_variation="0;1"
       top_tgt_variation="0;1"
       scale_bf="1"
       scale_bb="1"
       scale_tf="1"
       scale_tb="1"
       top_smth_variation="0;1"
       bottom_smth_variation="0;1"
       fat_output="true"
       stroke_width_top="1"
       stroke_width_bottom="1"
       front_thickness="1"
       back_thickness="0.25" /><inkscape:path-effect
       effect="rough_hatches"
       id="path-effect48279-6-6"
       is_visible="true"
       lpeversion="1.2"
       direction="202.75086,1396.9636 , 11.346896,0"
       dist_rdm="75;1"
       growth="0"
       do_bend="true"
       bender="202.75086,1401.9636 , 5,0"
       bottom_edge_variation="4.5387585;1"
       top_edge_variation="4.5387585;1"
       bottom_tgt_variation="0;1"
       top_tgt_variation="0;1"
       scale_bf="1"
       scale_bb="1"
       scale_tf="1"
       scale_tb="1"
       top_smth_variation="0;1"
       bottom_smth_variation="0;1"
       fat_output="true"
       stroke_width_top="1"
       stroke_width_bottom="1"
       front_thickness="1"
       back_thickness="0.25" /><inkscape:path-effect
       effect="rough_hatches"
       id="path-effect48279-4-9"
       is_visible="true"
       lpeversion="1.2"
       direction="202.75086,1396.9636 , 11.346896,0"
       dist_rdm="75;1"
       growth="0"
       do_bend="true"
       bender="202.75086,1401.9636 , 5,0"
       bottom_edge_variation="4.5387585;1"
       top_edge_variation="4.5387585;1"
       bottom_tgt_variation="0;1"
       top_tgt_variation="0;1"
       scale_bf="1"
       scale_bb="1"
       scale_tf="1"
       scale_tb="1"
       top_smth_variation="0;1"
       bottom_smth_variation="0;1"
       fat_output="true"
       stroke_width_top="1"
       stroke_width_bottom="1"
       front_thickness="1"
       back_thickness="0.25" /><inkscape:path-effect
       effect="rough_hatches"
       id="path-effect48279-6-6-9"
       is_visible="true"
       lpeversion="1.2"
       direction="202.75086,1396.9636 , 11.346896,0"
       dist_rdm="75;1"
       growth="0"
       do_bend="true"
       bender="202.75086,1401.9636 , 5,0"
       bottom_edge_variation="4.5387585;1"
       top_edge_variation="4.5387585;1"
       bottom_tgt_variation="0;1"
       top_tgt_variation="0;1"
       scale_bf="1"
       scale_bb="1"
       scale_tf="1"
       scale_tb="1"
       top_smth_variation="0;1"
       bottom_smth_variation="0;1"
       fat_output="true"
       stroke_width_top="1"
       stroke_width_bottom="1"
       front_thickness="1"
       back_thickness="0.25" /><inkscape:path-effect
       effect="rough_hatches"
       id="path-effect48279-4-2"
       is_visible="true"
       lpeversion="1.2"
       direction="202.75086,1396.9636 , 11.346896,0"
       dist_rdm="75;1"
       growth="0"
       do_bend="true"
       bender="202.75086,1401.9636 , 5,0"
       bottom_edge_variation="4.5387585;1"
       top_edge_variation="4.5387585;1"
       bottom_tgt_variation="0;1"
       top_tgt_variation="0;1"
       scale_bf="1"
       scale_bb="1"
       scale_tf="1"
       scale_tb="1"
       top_smth_variation="0;1"
       bottom_smth_variation="0;1"
       fat_output="true"
       stroke_width_top="1"
       stroke_width_bottom="1"
       front_thickness="1"
       back_thickness="0.25" /><inkscape:path-effect
       effect="rough_hatches"
       id="path-effect48279-6-6-7"
       is_visible="true"
       lpeversion="1.2"
       direction="202.75086,1396.9636 , 11.346896,0"
       dist_rdm="75;1"
       growth="0"
       do_bend="true"
       bender="202.75086,1401.9636 , 5,0"
       bottom_edge_variation="4.5387585;1"
       top_edge_variation="4.5387585;1"
       bottom_tgt_variation="0;1"
       top_tgt_variation="0;1"
       scale_bf="1"
       scale_bb="1"
       scale_tf="1"
       scale_tb="1"
       top_smth_variation="0;1"
       bottom_smth_variation="0;1"
       fat_output="true"
       stroke_width_top="1"
       stroke_width_bottom="1"
       front_thickness="1"
       back_thickness="0.25" /><inkscape:path-effect
       effect="gears"
       id="path-effect49685-2"
       is_visible="true"
       lpeversion="1"
       teeth="40"
       phi="7.6"
       min_radius="5.7" /><inkscape:path-effect
       effect="gears"
       id="path-effect50274-1"
       is_visible="true"
       lpeversion="1"
       teeth="54"
       phi="5"
       min_radius="5" /><inkscape:path-effect
       effect="gears"
       id="path-effect50278-5"
       is_visible="true"
       lpeversion="1"
       teeth="31"
       phi="5"
       min_radius="5" /><inkscape:path-effect
       effect="fill_between_many"
       method="bsplinespiro"
       linkedpaths="#path49683-9,0,1"
       id="path-effect50874"
       is_visible="true"
       lpeversion="0"
       join="true"
       close="true"
       autoreverse="true" /></defs><g
     inkscape:label="Calque 1"
     inkscape:groupmode="layer"
     id="layer1"><rect
       style="fill:#ffffff;fill-opacity:1;stroke-width:1.137;stroke-linecap:round;stroke-linejoin:round"
       id="rect2"
       width="261.04019"
       height="145.58992"
       x="-84.915337"
       y="2194.354"
       inkscape:export-filename="../../../py3dtiles.png"
       inkscape:export-xdpi="50"
       inkscape:export-ydpi="50" /><g
       id="g1"
       transform="translate(-28.037649,-34.379327)"
       inkscape:export-filename="logo_300x65.png"
       inkscape:export-xdpi="36.61351"
       inkscape:export-ydpi="36.61351"><g
         id="g2758-3-3-7-7"
         style="fill:#ff6600;fill-opacity:1"
         transform="translate(99.798657,-1822.4919)"><path
           d="m 38.288315,1890.5645 v -2.4888 h 7.46619 q 0.796393,0 1.269252,-0.1 0.497746,-0.1 0.771506,-0.3484 0.273761,-0.2738 0.348423,-0.7467 0.09955,-0.4977 0.09955,-1.2941 h -4.97746 v -2.4887 h 4.97746 q 0,-0.7715 -0.09955,-1.2693 -0.09955,-0.4977 -0.37331,-0.7466 -0.248873,-0.2738 -0.746619,-0.3733 -0.497746,-0.1 -1.269252,-0.1 h -4.97746 v -2.4887 h 4.97746 q 1.393689,0 2.339406,0.2489 0.970605,0.2488 1.543013,0.8461 0.597295,0.5725 0.846168,1.5431 0.248873,0.9457 0.248873,2.3394 v 2.4887 q 0,1.3937 -0.248873,2.3643 -0.248873,0.9457 -0.846168,1.543 -0.572408,0.5724 -1.543013,0.8213 -0.945717,0.2489 -2.339406,0.2489 z"
           style="font-size:24.8873px;line-height:1.25;letter-spacing:0px;word-spacing:0px;fill:#ff6600;fill-opacity:1;stroke-width:0.622184"
           id="path1260-6-6-5-5" /><path
           d="m 58.671002,1890.5645 q -1.393688,0 -2.364293,-0.2489 -0.945718,-0.2489 -1.543013,-0.8213 -0.572408,-0.5973 -0.821281,-1.543 -0.248873,-0.9706 -0.248873,-2.3643 v -2.4887 q 0,-1.3937 0.248873,-2.3394 0.248873,-0.9706 0.821281,-1.5431 0.597295,-0.5973 1.543013,-0.8461 0.970605,-0.2489 2.364293,-0.2489 h 4.977461 q 0.796393,0 1.269252,0.05 0.497746,0.05 0.746619,0.1244 0.27376,0.05 0.348422,0.1245 0.09955,0.05 0.124437,0.1 v -5.3757 h 2.48873 v 12.4437 q 0,1.3937 -0.248873,2.3643 -0.248873,0.9457 -0.846169,1.543 -0.572408,0.5724 -1.543012,0.8213 -0.945718,0.2489 -2.339406,0.2489 z m -2.48873,-4.9775 q 0,0.7964 0.07466,1.2941 0.09955,0.4729 0.37331,0.7467 0.27376,0.2737 0.746619,0.3733 0.497746,0.075 1.294139,0.075 h 4.977461 q 0.796393,0 1.269252,-0.075 0.497746,-0.1 0.771506,-0.3733 0.27376,-0.2738 0.348422,-0.7467 0.09955,-0.4977 0.09955,-1.2941 v -2.4887 q 0,-0.7964 -0.09955,-1.2693 -0.07466,-0.4977 -0.348422,-0.7715 -0.27376,-0.2738 -0.771506,-0.3484 -0.472859,-0.1 -1.269252,-0.1 H 58.671 q -0.796393,0 -1.294139,0.1 -0.472859,0.075 -0.746619,0.3484 -0.273761,0.2738 -0.37331,0.7715 -0.07466,0.4729 -0.07466,1.2693 z"
           style="font-size:24.8873px;line-height:1.25;letter-spacing:0px;word-spacing:0px;fill:#ff6600;fill-opacity:1;stroke-width:0.622184"
           id="path1262-7-7-3-35" /></g><path
         d="m 113.14995,55.628727 q 1.39369,0 2.3394,0.2489 0.97061,0.2488 1.54301,0.8462 0.5973,0.5725 0.84617,1.5431 0.24888,0.9457 0.24888,2.3393 v 2.4887 q 0,1.3937 -0.24888,2.3643 -0.24887,0.9458 -0.84617,1.5431 -0.5724,0.5724 -1.54301,0.8213 -0.94571,0.2489 -2.3394,0.2489 h -4.97746 q -0.7964,0 -1.29414,-0.05 -0.47286,-0.05 -0.74662,-0.1 -0.24888,-0.075 -0.34843,-0.1245 -0.0747,-0.075 -0.0996,-0.1244 v 5.3756 h -2.48873 v -12.4436 q 0,-1.3937 0.24888,-2.3394 0.24887,-0.9706 0.82128,-1.5431 0.59729,-0.5973 1.54301,-0.8461 0.97061,-0.2489 2.3643,-0.2489 z m 2.48873,4.9775 q 0,-0.7964 -0.0995,-1.2693 -0.0747,-0.4976 -0.34843,-0.7714 -0.27376,-0.2738 -0.7715,-0.3484 -0.47286,-0.1 -1.26925,-0.1 h -4.97746 q -0.7964,0 -1.29414,0.1 -0.47286,0.075 -0.74662,0.3484 -0.27376,0.2738 -0.37331,0.7714 -0.0747,0.473 -0.0747,1.2693 v 2.4887 q 0,0.7964 0.0747,1.2941 0.0995,0.473 0.37331,0.7467 0.27376,0.2738 0.74662,0.3734 0.49774,0.075 1.29414,0.075 H 113.15 q 0.79639,0 1.26925,-0.075 0.49775,-0.1 0.7715,-0.3734 0.27376,-0.2737 0.34843,-0.7467 0.0995,-0.4977 0.0995,-1.2941 z"
         style="font-size:24.8873px;line-height:1.25;font-family:IDM;-inkscape-font-specification:'IDM, Normal';letter-spacing:0px;word-spacing:0px;fill:#3f7bad;fill-opacity:1;stroke-width:0.622184"
         id="path1256-3-5-5-6" /><path
         d="m 135.62314,70.561227 q 0,1.3937 -0.24888,2.3393 -0.24887,0.9706 -0.84617,1.543 -0.5724,0.5973 -1.54301,0.8462 -0.94572,0.2488 -2.3394,0.2488 h -7.46619 v -2.4887 h 7.46619 q 0.82128,0 1.29414,-0.1 0.49774,-0.1 0.74661,-0.3734 0.27377,-0.2489 0.34843,-0.7467 0.0996,-0.4728 0.0996,-1.2692 v -2.4887 h -7.46619 q -1.39369,0 -2.3643,-0.2489 -0.94571,-0.2489 -1.54301,-0.8213 -0.57241,-0.5973 -0.82128,-1.543 -0.24887,-0.9706 -0.24887,-2.3643 v -7.4662 h 2.48873 v 7.5906 q 0,0.7964 0.0747,1.2693 0.0996,0.4728 0.37331,0.7217 0.27376,0.224 0.74662,0.2987 0.49774,0.075 1.29413,0.075 h 7.46619 v -9.9549 h 2.48873 z"
         style="font-size:24.8873px;line-height:1.25;font-family:IDM;-inkscape-font-specification:'IDM, Normal';letter-spacing:0px;word-spacing:0px;fill:#3f7bad;fill-opacity:1;stroke-width:0.622184"
         id="path1258-5-3-6-2" /><path
         d="m 185.84568,55.628727 v 2.4887 h -12.44364 v 4.9775 q 0,0.7964 0.0747,1.2941 0.0747,0.473 0.29864,0.7467 0.24888,0.2738 0.72174,0.3734 0.47285,0.075 1.26925,0.075 h 2.61316 v 2.4889 h -2.48872 q -1.39369,0 -2.3643,-0.2489 -0.94572,-0.249 -1.54301,-0.8214 -0.57241,-0.5972 -0.82129,-1.543 -0.24887,-0.9706 -0.24887,-2.3643 v -7.4662 z"
         style="font-size:24.8873px;line-height:1.25;font-family:IDM;-inkscape-font-specification:'IDM, Normal';letter-spacing:0px;word-spacing:0px;fill:#ff6600;fill-opacity:1;stroke-width:0.622184"
         id="path1264-6-5-2-91" /><path
         d="m 188.30948,55.628727 h 2.48873 v 12.4437 h -2.48873 z"
         style="font-size:24.8873px;line-height:1.25;font-family:IDM;-inkscape-font-specification:'IDM, Normal';letter-spacing:0px;word-spacing:0px;fill:#ff6600;fill-opacity:1;stroke-width:0.622184"
         id="path1266-2-6-9-27" /><path
         d="m 170.9133,50.651927 h 2.48874 v 9.5262 h -2.48874 z"
         style="font-size:24.8873px;line-height:1.25;font-family:IDM;-inkscape-font-specification:'IDM, Normal';letter-spacing:0px;word-spacing:0px;fill:#ff6600;fill-opacity:1;stroke-width:0.544379"
         id="path1266-6-9-2-1-0" /><path
         d="m 195.80054,55.579027 v 7.516 q 0,0.7964 0.0995,1.2941 0.0996,0.4729 0.34842,0.7467 0.27376,0.2737 0.74662,0.3733 0.49775,0.075 1.29414,0.075 h 7.46619 v 2.4888 h -7.46619 q -1.39369,0 -2.36429,-0.2489 -0.94572,-0.2489 -1.54301,-0.8213 -0.57241,-0.5973 -0.82129,-1.543 -0.24887,-0.9706 -0.24887,-2.3643 v -7.516 z"
         style="font-size:24.8873px;line-height:1.25;font-family:IDM;-inkscape-font-specification:'IDM, Normal';letter-spacing:0px;word-spacing:0px;fill:#ff6600;fill-opacity:1;stroke-width:0.622184"
         id="path1268-1-9-2-9" /><path
         d="m 218.19907,55.628727 q 1.39369,0 2.33941,0.2489 0.9706,0.2488 1.54301,0.8462 0.5973,0.5725 0.84617,1.5431 0.24887,0.9457 0.24887,2.3393 v 2.4887 h -12.44365 q 0,0.7964 0.0747,1.2941 0.0995,0.473 0.3733,0.7467 0.27377,0.2738 0.74662,0.3734 0.49775,0.075 1.29414,0.075 h 7.46619 v 2.4889 h -7.46619 q -1.39369,0 -2.36429,-0.2489 -0.94572,-0.249 -1.54301,-0.8214 -0.57241,-0.5972 -0.82128,-1.543 -0.24888,-0.9706 -0.24888,-2.3643 v -2.4887 q 0,-1.3937 0.24888,-2.3394 0.24887,-0.9706 0.82128,-1.543 0.59729,-0.5973 1.54301,-0.8462 0.9706,-0.2489 2.36429,-0.2489 z m 2.48873,4.9775 q 0,-0.7714 -0.0996,-1.2693 -0.0995,-0.4976 -0.3733,-0.7466 -0.24888,-0.2737 -0.74662,-0.3733 -0.49775,-0.1 -1.26926,-0.1 h -4.97746 q -0.79639,0 -1.29414,0.1 -0.47285,0.1 -0.74662,0.3733 -0.27376,0.249 -0.3733,0.7466 -0.0747,0.4979 -0.0747,1.2693 z"
         style="font-size:24.8873px;line-height:1.25;font-family:IDM;-inkscape-font-specification:'IDM, Normal';letter-spacing:0px;word-spacing:0px;fill:#ff6600;fill-opacity:1;stroke-width:0.622184"
         id="path1270-2-1-7-3" /><path
         d="m 235.62014,65.583727 q 0.84617,0 1.31903,-0.075 0.49774,-0.1 0.74662,-0.3485 0.27376,-0.2737 0.34842,-0.7466 0.0747,-0.4977 0.0747,-1.319 h -12.44365 v -2.4887 q 0,-1.3937 0.24887,-2.3394 0.24888,-0.9706 0.82128,-1.5431 0.5973,-0.5973 1.54302,-0.8461 0.9706,-0.2489 2.36429,-0.2489 h 7.46619 v 2.4887 h -7.46619 q -0.79639,0 -1.29414,0.1 -0.47286,0.075 -0.74662,0.3484 -0.27376,0.2738 -0.37331,0.7714 -0.0747,0.473 -0.0747,1.2693 h 12.44365 v 2.4887 q 0,1.3937 -0.24887,2.3643 -0.24888,0.9458 -0.84617,1.5431 -0.57241,0.5724 -1.54301,0.8213 -0.94572,0.2489 -2.33941,0.2489 h -9.95492 v -2.4888 z"
         style="font-size:24.8873px;line-height:1.25;font-family:IDM;-inkscape-font-specification:'IDM, Normal';letter-spacing:0px;word-spacing:0px;fill:#ff6600;fill-opacity:1;stroke-width:0.622184"
         id="path1272-7-2-0-6" /><path
         style="fill:#ff6600;fill-opacity:1;stroke:none;stroke-width:0.264583px;stroke-linecap:butt;stroke-linejoin:miter;stroke-opacity:1"
         d="m 60.468077,58.879327 37.32051,-10 v 25 l -37.32051,10 z"
         id="path18021-5-2-3-0-7-9-0" /><path
         style="fill:#3f7bad;fill-opacity:1;stroke:none;stroke-width:0.264583px;stroke-linecap:butt;stroke-linejoin:miter;stroke-opacity:1"
         d="m 88.458457,41.379327 v 5 l -37.3205,10 v 20 l -18.66026,5 v -25 z"
         id="path18504-6-5-1-9-0-3-6" /><path
         style="fill:#ff6600;fill-opacity:1;stroke:none;stroke-width:0.264583px;stroke-linecap:butt;stroke-linejoin:miter;stroke-opacity:1"
         d="m 60.468077,38.879327 v 5 l -27.99038,7.5 v -5 z"
         id="path20437-9-4-9-3-9-6-2" /></g></g></svg>
